<svg width="14" height="16" viewBox="0 0 14 16" fill="none" xmlns="http://www.w3.org/2000/svg">
<g clip-path="url(#clip0_438_1686)">
<path d="M13.0788 5.4544C12.9848 5.5264 11.3242 6.4496 11.3242 8.5024C11.3242 10.8768 13.4372 11.7168 13.5004 11.7376C13.4907 11.7888 13.1648 12.888 12.3864 14.008C11.6923 14.9936 10.9675 15.9776 9.86477 15.9776C8.76207 15.9776 8.47829 15.3456 7.20531 15.3456C5.96477 15.3456 5.52369 15.9984 4.51504 15.9984C3.5064 15.9984 2.80261 15.0864 1.99342 13.9664C1.05613 12.6512 0.298828 10.608 0.298828 8.6688C0.298828 5.5584 2.34856 3.9088 4.36585 3.9088C5.43775 3.9088 6.33126 4.6032 7.00423 4.6032C7.64477 4.6032 8.64369 3.8672 9.86315 3.8672C10.3253 3.8672 11.9859 3.9088 13.0788 5.4544ZM9.28423 2.5504C9.78856 1.96 10.1453 1.1408 10.1453 0.3216C10.1453 0.208 10.1356 0.0928 10.1145 0C9.29396 0.0304 8.31775 0.5392 7.7291 1.2128C7.26694 1.7312 6.83558 2.5504 6.83558 3.3808C6.83558 3.5056 6.85667 3.6304 6.86639 3.6704C6.91829 3.68 7.00261 3.6912 7.08694 3.6912C7.82315 3.6912 8.7491 3.2048 9.28423 2.5504Z" fill="white"/>
</g>
<defs>
<clipPath id="clip0_438_1686">
<rect width="13.2" height="16" fill="white" transform="translate(0.298828)"/>
</clipPath>
</defs>
</svg>
