<svg width="18" height="20" viewBox="0 0 21 24" fill="none" xmlns="http://www.w3.org/2000/svg">
<g clip-path="url(#clip0_438_1439)">
<path d="M19.8946 8.1816C19.7535 8.2896 17.2627 9.6744 17.2627 12.7536C17.2627 16.3152 20.4322 17.5752 20.527 17.6064C20.5124 17.6832 20.0235 19.332 18.856 21.012C17.8149 22.4904 16.7276 23.9664 15.0735 23.9664C13.4195 23.9664 12.9938 23.0184 11.0843 23.0184C9.22353 23.0184 8.56191 23.9976 7.04893 23.9976C5.53596 23.9976 4.48028 22.6296 3.2665 20.9496C1.86056 18.9768 0.724609 15.912 0.724609 13.0032C0.724609 8.3376 3.7992 5.8632 6.82515 5.8632C8.43299 5.8632 9.77326 6.9048 10.7827 6.9048C11.7435 6.9048 13.2419 5.8008 15.0711 5.8008C15.7643 5.8008 18.2551 5.8632 19.8946 8.1816ZM14.2027 3.8256C14.9592 2.94 15.4943 1.7112 15.4943 0.4824C15.4943 0.312 15.4797 0.1392 15.4481 0C14.2173 0.0456 12.753 0.8088 11.87 1.8192C11.1768 2.5968 10.5297 3.8256 10.5297 5.0712C10.5297 5.2584 10.5614 5.4456 10.576 5.5056C10.6538 5.52 10.7803 5.5368 10.9068 5.5368C12.0111 5.5368 13.4 4.8072 14.2027 3.8256Z" fill="black"/>
</g>
<defs>
<clipPath id="clip0_438_1439">
<rect width="19.8" height="24" fill="white" transform="translate(0.724609)"/>
</clipPath>
</defs>
</svg>
