<svg width="206" height="52" viewBox="0 0 206 52" fill="none" xmlns="http://www.w3.org/2000/svg">
<g filter="url(#filter0_d_438_1656)">
<mask id="mask0_438_1656" style="mask-type:alpha" maskUnits="userSpaceOnUse" x="2" y="1" width="48" height="48">
<path d="M2 18.3359C2 12.2678 2 9.23371 3.18094 6.91599C4.21972 4.87726 5.87726 3.21972 7.91599 2.18094C10.2337 1 13.2678 1 19.3359 1H32.6641C38.7322 1 41.7663 1 44.084 2.18094C46.1227 3.21972 47.7803 4.87726 48.8191 6.91599C50 9.23371 50 12.2678 50 18.3359V31.6641C50 37.7322 50 40.7663 48.8191 43.084C47.7803 45.1227 46.1227 46.7803 44.084 47.8191C41.7663 49 38.7322 49 32.6641 49H19.3359C13.2678 49 10.2337 49 7.91599 47.8191C5.87726 46.7803 4.21972 45.1227 3.18094 43.084C2 40.7663 2 37.7322 2 31.6641V18.3359Z" fill="url(#paint0_linear_438_1656)"/>
</mask>
<g mask="url(#mask0_438_1656)">
<g filter="url(#filter1_i_438_1656)">
<path d="M2 18.3359C2 12.2678 2 9.23371 3.18094 6.91599C4.21972 4.87726 5.87726 3.21972 7.91599 2.18094C10.2337 1 13.2678 1 19.3359 1H32.6641C38.7322 1 41.7663 1 44.084 2.18094C46.1227 3.21972 47.7803 4.87726 48.8191 6.91599C50 9.23371 50 12.2678 50 18.3359V31.6641C50 37.7322 50 40.7663 48.8191 43.084C47.7803 45.1227 46.1227 46.7803 44.084 47.8191C41.7663 49 38.7322 49 32.6641 49H19.3359C13.2678 49 10.2337 49 7.91599 47.8191C5.87726 46.7803 4.21972 45.1227 3.18094 43.084C2 40.7663 2 37.7322 2 31.6641V18.3359Z" fill="#141414"/>
<path d="M2 18.3359C2 12.2678 2 9.23371 3.18094 6.91599C4.21972 4.87726 5.87726 3.21972 7.91599 2.18094C10.2337 1 13.2678 1 19.3359 1H32.6641C38.7322 1 41.7663 1 44.084 2.18094C46.1227 3.21972 47.7803 4.87726 48.8191 6.91599C50 9.23371 50 12.2678 50 18.3359V31.6641C50 37.7322 50 40.7663 48.8191 43.084C47.7803 45.1227 46.1227 46.7803 44.084 47.8191C41.7663 49 38.7322 49 32.6641 49H19.3359C13.2678 49 10.2337 49 7.91599 47.8191C5.87726 46.7803 4.21972 45.1227 3.18094 43.084C2 40.7663 2 37.7322 2 31.6641V18.3359Z" fill="url(#paint1_radial_438_1656)"/>
</g>
<g clip-path="url(#clip0_438_1656)">
<g clip-path="url(#clip1_438_1656)">
<path fill-rule="evenodd" clip-rule="evenodd" d="M16.5285 11.6885C16.4063 11.8667 16.4404 12.1164 16.586 12.2761C17.2685 13.0245 19.123 15.5824 21.14 22.8485L14.3643 23.8816L14.3496 22.8365V12.8103C14.3496 12.1151 14.576 11.4388 14.9947 10.8838L17.6033 7.42513C18.2079 6.62361 19.1536 6.15234 20.1575 6.15234H24.3999C25.1261 6.15234 25.8307 6.39942 26.3979 6.85296L26.992 7.32807H21.3447C20.202 7.32807 19.1328 7.8913 18.4865 8.83364L16.5285 11.6885ZM33.0849 30.2612L33.0839 30.2578L33.0875 30.2612H33.0849ZM33.0839 30.2578L26.7797 24.3893H26.8143L26.757 24.3439L26.4997 24.14L24.9054 22.875L23.2951 16.8603C23.2951 16.8603 22.9019 15.4887 24.2256 15.4887H29.807L29.9163 15.3447L30.0083 13.2838L28.1647 12.0521L22.486 11.9361C22.486 11.9361 20.4278 12.0228 20.4278 9.14346L25.0461 9.1052C25.9074 9.09806 26.7427 9.40007 27.4004 9.95639L30.5948 12.6586L31.2771 12.6972C31.6401 12.7177 31.9436 12.9804 32.0159 13.3366L32.2051 14.2689L32.1917 14.2863H35.7879C37.0066 14.2863 38.189 14.7009 39.1408 15.462H31.9487C31.7729 15.462 31.6084 15.5486 31.509 15.6936L28.7505 19.7157C28.5875 19.9533 28.6331 20.2895 28.8214 20.5076C29.5381 21.3378 31.2263 23.8194 33.0839 30.2578ZM44.0403 20.8651L42.742 20.7918L39.8496 18.345C38.9971 17.6239 37.9142 17.2324 36.7977 17.2416L32.575 17.2766C32.575 20.1559 34.6332 20.0693 34.6332 20.0693L40.3119 20.1853L42.1554 21.417L42.0568 23.6218H36.3728C35.0491 23.6218 35.4423 24.9935 35.4423 24.9935L37.3539 32.1292L37.4512 54.444C36.5154 46.1979 35.421 39.902 34.3252 35.1005L31.9978 36.6788L26.9549 37.6426L27.9107 59.063L27.8747 59.0843L38.8242 63.7085L38.9215 25.0681L41.8091 24.8894C42.2316 24.8632 42.6222 24.6557 42.8804 24.3203L43.9467 22.935C44.206 22.5982 44.3064 22.1655 44.2218 21.7489L44.0437 20.8715C44.0433 20.8691 44.0421 20.8668 44.0403 20.8651Z" fill="#1967FF"/>
<path fill-rule="evenodd" clip-rule="evenodd" d="M16.5285 11.6885C16.4063 11.8667 16.4404 12.1164 16.586 12.2761C17.2685 13.0245 19.123 15.5824 21.14 22.8485L14.3643 23.8816L14.3496 22.8365V12.8103C14.3496 12.1151 14.576 11.4388 14.9947 10.8838L17.6033 7.42513C18.2079 6.62361 19.1536 6.15234 20.1575 6.15234H24.3999C25.1261 6.15234 25.8307 6.39942 26.3979 6.85296L26.992 7.32807H21.3447C20.202 7.32807 19.1328 7.8913 18.4865 8.83364L16.5285 11.6885ZM33.0849 30.2612L33.0839 30.2578L33.0875 30.2612H33.0849ZM33.0839 30.2578L26.7797 24.3893H26.8143L26.757 24.3439L26.4997 24.14L24.9054 22.875L23.2951 16.8603C23.2951 16.8603 22.9019 15.4887 24.2256 15.4887H29.807L29.9163 15.3447L30.0083 13.2838L28.1647 12.0521L22.486 11.9361C22.486 11.9361 20.4278 12.0228 20.4278 9.14346L25.0461 9.1052C25.9074 9.09806 26.7427 9.40007 27.4004 9.95639L30.5948 12.6586L31.2771 12.6972C31.6401 12.7177 31.9436 12.9804 32.0159 13.3366L32.2051 14.2689L32.1917 14.2863H35.7879C37.0066 14.2863 38.189 14.7009 39.1408 15.462H31.9487C31.7729 15.462 31.6084 15.5486 31.509 15.6936L28.7505 19.7157C28.5875 19.9533 28.6331 20.2895 28.8214 20.5076C29.5381 21.3378 31.2263 23.8194 33.0839 30.2578ZM44.0403 20.8651L42.742 20.7918L39.8496 18.345C38.9971 17.6239 37.9142 17.2324 36.7977 17.2416L32.575 17.2766C32.575 20.1559 34.6332 20.0693 34.6332 20.0693L40.3119 20.1853L42.1554 21.417L42.0568 23.6218H36.3728C35.0491 23.6218 35.4423 24.9935 35.4423 24.9935L37.3539 32.1292L37.4512 54.444C36.5154 46.1979 35.421 39.902 34.3252 35.1005L31.9978 36.6788L26.9549 37.6426L27.9107 59.063L27.8747 59.0843L38.8242 63.7085L38.9215 25.0681L41.8091 24.8894C42.2316 24.8632 42.6222 24.6557 42.8804 24.3203L43.9467 22.935C44.206 22.5982 44.3064 22.1655 44.2218 21.7489L44.0437 20.8715C44.0433 20.8691 44.0421 20.8668 44.0403 20.8651Z" fill="url(#paint2_linear_438_1656)"/>
<path fill-rule="evenodd" clip-rule="evenodd" d="M16.5285 11.6885C16.4063 11.8667 16.4404 12.1164 16.586 12.2761C17.2685 13.0245 19.123 15.5824 21.14 22.8485L14.3643 23.8816L14.3496 22.8365V12.8103C14.3496 12.1151 14.576 11.4388 14.9947 10.8838L17.6033 7.42513C18.2079 6.62361 19.1536 6.15234 20.1575 6.15234H24.3999C25.1261 6.15234 25.8307 6.39942 26.3979 6.85296L26.992 7.32807H21.3447C20.202 7.32807 19.1328 7.8913 18.4865 8.83364L16.5285 11.6885ZM33.0849 30.2612L33.0839 30.2578L33.0875 30.2612H33.0849ZM33.0839 30.2578L26.7797 24.3893H26.8143L26.757 24.3439L26.4997 24.14L24.9054 22.875L23.2951 16.8603C23.2951 16.8603 22.9019 15.4887 24.2256 15.4887H29.807L29.9163 15.3447L30.0083 13.2838L28.1647 12.0521L22.486 11.9361C22.486 11.9361 20.4278 12.0228 20.4278 9.14346L25.0461 9.1052C25.9074 9.09806 26.7427 9.40007 27.4004 9.95639L30.5948 12.6586L31.2771 12.6972C31.6401 12.7177 31.9436 12.9804 32.0159 13.3366L32.2051 14.2689L32.1917 14.2863H35.7879C37.0066 14.2863 38.189 14.7009 39.1408 15.462H31.9487C31.7729 15.462 31.6084 15.5486 31.509 15.6936L28.7505 19.7157C28.5875 19.9533 28.6331 20.2895 28.8214 20.5076C29.5381 21.3378 31.2263 23.8194 33.0839 30.2578ZM44.0403 20.8651L42.742 20.7918L39.8496 18.345C38.9971 17.6239 37.9142 17.2324 36.7977 17.2416L32.575 17.2766C32.575 20.1559 34.6332 20.0693 34.6332 20.0693L40.3119 20.1853L42.1554 21.417L42.0568 23.6218H36.3728C35.0491 23.6218 35.4423 24.9935 35.4423 24.9935L37.3539 32.1292L37.4512 54.444C36.5154 46.1979 35.421 39.902 34.3252 35.1005L31.9978 36.6788L26.9549 37.6426L27.9107 59.063L27.8747 59.0843L38.8242 63.7085L38.9215 25.0681L41.8091 24.8894C42.2316 24.8632 42.6222 24.6557 42.8804 24.3203L43.9467 22.935C44.206 22.5982 44.3064 22.1655 44.2218 21.7489L44.0437 20.8715C44.0433 20.8691 44.0421 20.8668 44.0403 20.8651Z" fill="url(#paint3_radial_438_1656)"/>
<path d="M34.9853 32.6544C34.8797 32.188 34.4765 31.8489 33.9989 31.8248L33.511 31.8002L32.8152 31.7655L27.2575 27.5491C26.6708 27.104 25.9533 26.8655 25.2169 26.8707L22.1589 26.8933L17.2214 26.9293C17.2214 30.8884 20.378 30.7698 20.378 30.7698L22.9894 30.8177L25.2356 30.8591L26.4993 30.8817L26.7419 30.8857L29.088 30.9284L31.435 32.3337C31.7307 32.5107 31.9047 32.8363 31.8876 33.1806L31.8088 34.7671C31.7841 35.2639 31.3742 35.654 30.8768 35.654H23.0467C21.0179 35.654 21.6191 37.5402 21.6191 37.5402L23.424 45.2464L23.8239 56.1972L23.8052 56.1759C21.1618 40.6728 17.1894 34.6502 14.3514 32.3201C12.9115 31.1377 11.7644 30.9056 11.2324 30.8687C11.1137 30.8604 11.0337 30.7075 11.106 30.613L14.3514 26.3708C15.2854 25.1501 16.7326 24.4314 18.2695 24.425L21.5591 24.4112L25.2076 24.3952L26.4993 24.3899H26.7566H26.7792H26.8139L26.7566 24.3446L26.4993 24.1406L24.905 22.8756L24.8917 22.8649L21.1419 22.8489L16.7995 22.8301C15.2575 22.8235 13.7921 23.5016 12.7993 24.6814L10.6713 27.21C8.88223 29.336 7.89609 32.0225 7.88484 34.801L7.73828 71.0271L27.8723 59.0846L27.9083 59.0632L26.9525 37.6428L31.0387 37.4159C31.9087 37.3676 32.7214 36.9665 33.2889 36.3053L34.3228 35.1008L34.9359 34.3866C35.1557 34.1306 35.2413 33.7857 35.1668 33.4566L34.9853 32.6544Z" fill="white"/>
<path d="M34.9853 32.6544C34.8797 32.188 34.4765 31.8489 33.9989 31.8248L33.511 31.8002L32.8152 31.7655L27.2575 27.5491C26.6708 27.104 25.9533 26.8655 25.2169 26.8707L22.1589 26.8933L17.2214 26.9293C17.2214 30.8884 20.378 30.7698 20.378 30.7698L22.9894 30.8177L25.2356 30.8591L26.4993 30.8817L26.7419 30.8857L29.088 30.9284L31.435 32.3337C31.7307 32.5107 31.9047 32.8363 31.8876 33.1806L31.8088 34.7671C31.7841 35.2639 31.3742 35.654 30.8768 35.654H23.0467C21.0179 35.654 21.6191 37.5402 21.6191 37.5402L23.424 45.2464L23.8239 56.1972L23.8052 56.1759C21.1618 40.6728 17.1894 34.6502 14.3514 32.3201C12.9115 31.1377 11.7644 30.9056 11.2324 30.8687C11.1137 30.8604 11.0337 30.7075 11.106 30.613L14.3514 26.3708C15.2854 25.1501 16.7326 24.4314 18.2695 24.425L21.5591 24.4112L25.2076 24.3952L26.4993 24.3899H26.7566H26.7792H26.8139L26.7566 24.3446L26.4993 24.1406L24.905 22.8756L24.8917 22.8649L21.1419 22.8489L16.7995 22.8301C15.2575 22.8235 13.7921 23.5016 12.7993 24.6814L10.6713 27.21C8.88223 29.336 7.89609 32.0225 7.88484 34.801L7.73828 71.0271L27.8723 59.0846L27.9083 59.0632L26.9525 37.6428L31.0387 37.4159C31.9087 37.3676 32.7214 36.9665 33.2889 36.3053L34.3228 35.1008L34.9359 34.3866C35.1557 34.1306 35.2413 33.7857 35.1668 33.4566L34.9853 32.6544Z" fill="url(#paint4_radial_438_1656)" fill-opacity="0.3"/>
</g>
</g>
</g>
</g>
<g clip-path="url(#clip2_438_1656)">
<path d="M68.1805 25.9895C68.0177 25.9895 67.9164 25.8882 67.9164 25.7254V13.6472H63.3002C63.1374 13.6472 63.0566 13.5459 63.0566 13.3831V11.3295C63.0566 11.1667 63.1374 11.0654 63.3002 11.0654H75.2566C75.4194 11.0654 75.5207 11.1667 75.5207 11.3295V13.3831C75.5207 13.5459 75.4194 13.6472 75.2566 13.6472H70.661V25.7254C70.661 25.8882 70.5597 25.9895 70.3969 25.9895H68.1805Z" fill="#010610"/>
<path d="M75.9887 25.9899C75.8259 25.9899 75.7246 25.8887 75.7246 25.7259V15.7218C75.7246 15.559 75.8259 15.4577 75.9887 15.4577H77.9C78.0628 15.4577 78.1846 15.5385 78.1846 15.7218L78.2461 17.0435C78.9576 15.9051 80.1985 15.3154 81.4586 15.3154C81.7637 15.3154 81.9675 15.3359 82.1701 15.3757C82.3329 15.4167 82.3931 15.518 82.3931 15.6603V17.7549C82.3931 17.9382 82.2919 17.9985 82.1085 17.978C81.8445 17.9575 81.5394 17.8972 81.133 17.8972C79.7101 17.8972 78.3679 18.8727 78.3679 20.5405V25.7259C78.3679 25.8887 78.2666 25.9899 78.1038 25.9899H75.9887Z" fill="#010610"/>
<path d="M83.0039 20.7238C83.0039 17.4908 84.9152 15.2539 87.9239 15.2539C89.3878 15.2539 90.6082 15.8641 91.3607 16.9012L91.421 15.7218C91.421 15.5385 91.5427 15.4577 91.7055 15.4577H93.6169C93.7797 15.4577 93.881 15.559 93.881 15.7218V25.7259C93.881 25.8887 93.7797 25.9899 93.6169 25.9899H91.7055C91.5427 25.9899 91.421 25.9092 91.421 25.7259L91.3607 24.5465C90.6082 25.5836 89.3878 26.1938 87.9239 26.1938C84.9152 26.1938 83.0039 23.9568 83.0039 20.7238ZM91.421 20.7238C91.421 18.9138 90.2621 17.6537 88.5738 17.6537C86.8855 17.6537 85.7267 18.9138 85.7267 20.7238C85.7267 22.5339 86.8855 23.794 88.5738 23.794C90.2621 23.794 91.421 22.5339 91.421 20.7238Z" fill="#010610"/>
<path d="M95.6693 20.7238C95.6693 17.4908 97.5806 15.2539 100.589 15.2539C101.972 15.2539 103.131 15.8025 103.903 16.7383V11.0043C103.903 10.8415 104.004 10.7402 104.167 10.7402H106.282C106.445 10.7402 106.546 10.8415 106.546 11.0043V25.7258C106.546 25.8886 106.445 25.9899 106.282 25.9899H104.371C104.208 25.9899 104.086 25.9091 104.086 25.7258L104.025 24.5465C103.272 25.5835 102.053 26.1937 100.588 26.1937C97.578 26.1937 95.668 23.9568 95.668 20.7238H95.6693ZM104.088 20.7238C104.088 18.9137 102.929 17.6536 101.24 17.6536C99.5522 17.6536 98.3933 18.9137 98.3933 20.7238C98.3933 22.5339 99.5522 23.794 101.24 23.794C102.929 23.794 104.088 22.5339 104.088 20.7238Z" fill="#010610"/>
<path d="M108.336 20.7238C108.336 17.5319 110.349 15.2539 113.664 15.2539C116.979 15.2539 118.746 17.6537 118.645 21.2725C118.625 21.4558 118.523 21.5366 118.361 21.5366H111.142C111.386 22.98 112.28 23.8543 113.684 23.8543C114.762 23.8543 115.515 23.4479 116.002 22.6544C116.083 22.5121 116.206 22.4916 116.348 22.5326L118.158 23.1633C118.321 23.2249 118.381 23.3466 118.3 23.5094C117.364 25.3592 115.616 26.1938 113.665 26.1938C110.351 26.1938 108.337 23.9171 108.337 20.7238H108.336ZM115.818 19.565C115.575 18.3241 114.781 17.5921 113.643 17.5921C112.402 17.5921 111.509 18.3036 111.183 19.565H115.818Z" fill="#010610"/>
<path d="M120.495 25.9899C120.332 25.9899 120.23 25.8887 120.23 25.7259V15.7218C120.23 15.559 120.332 15.4577 120.495 15.4577H122.406C122.569 15.4577 122.69 15.5385 122.69 15.7218L122.751 17.0435C123.462 15.9051 124.703 15.3154 125.963 15.3154C126.268 15.3154 126.471 15.3359 126.675 15.3757C126.837 15.4167 126.898 15.518 126.898 15.6603V17.7549C126.898 17.9382 126.796 17.9985 126.613 17.978C126.349 17.9575 126.044 17.8972 125.638 17.8972C124.215 17.8972 122.872 18.8727 122.872 20.5405V25.7259C122.872 25.8887 122.771 25.9899 122.608 25.9899H120.493H120.495Z" fill="#010610"/>
<path d="M128.832 25.9898C128.67 25.9898 128.568 25.8885 128.568 25.7257V11.3298C128.568 11.167 128.67 11.0657 128.832 11.0657H131.049C131.212 11.0657 131.313 11.167 131.313 11.3298V18.1611L137.291 11.2067C137.371 11.1055 137.494 11.0645 137.616 11.0645H140.218C140.443 11.0645 140.503 11.2273 140.361 11.3901L135.643 16.7177L141.052 25.6642C141.153 25.8475 141.072 25.9898 140.868 25.9898H138.246C138.103 25.9898 138.002 25.9295 137.94 25.8065L133.833 18.7508L131.312 21.5979V25.7257C131.312 25.8885 131.21 25.9898 131.048 25.9898H128.831H128.832Z" fill="#010610"/>
<path d="M141.479 20.7238C141.479 17.4908 143.39 15.2539 146.399 15.2539C147.862 15.2539 149.083 15.8641 149.835 16.9012L149.897 15.7218C149.897 15.5385 150.019 15.4577 150.181 15.4577H152.093C152.256 15.4577 152.357 15.559 152.357 15.7218V25.7259C152.357 25.8887 152.256 25.9899 152.093 25.9899H150.181C150.019 25.9899 149.897 25.9092 149.897 25.7259L149.835 24.5465C149.083 25.5836 147.864 26.1938 146.399 26.1938C143.39 26.1938 141.479 23.9568 141.479 20.7238ZM149.897 20.7238C149.897 18.9138 148.738 17.6537 147.05 17.6537C145.361 17.6537 144.203 18.9138 144.203 20.7238C144.203 22.5339 145.361 23.794 147.05 23.794C148.738 23.794 149.897 22.5339 149.897 20.7238Z" fill="#010610"/>
<path d="M155.324 21.9239V17.8166H153.78C153.617 17.8166 153.516 17.7153 153.516 17.5525V15.722C153.516 15.5592 153.617 15.4579 153.78 15.4579H155.324V12.6313C155.324 12.4685 155.426 12.3672 155.588 12.3672H157.704C157.866 12.3672 157.968 12.4685 157.968 12.6313V15.4579H160.469C160.632 15.4579 160.733 15.5592 160.733 15.722V17.5525C160.733 17.7153 160.632 17.8166 160.469 17.8166H157.968V22.0867C157.968 23.225 158.334 23.7942 159.147 23.7942C159.493 23.7942 159.737 23.6519 159.941 23.2865C160.021 23.1442 160.144 23.0827 160.307 23.1648L161.893 23.8762C162.056 23.957 162.097 24.1006 161.974 24.3031C161.221 25.6863 160.062 26.1939 158.862 26.1939C156.585 26.1939 155.324 24.771 155.324 21.9239Z" fill="#010610"/>
</g>
<path d="M64.6621 32.3878V36.653C64.6621 37.2526 64.8072 37.6975 65.0973 37.9877C65.3939 38.2778 65.8034 38.4229 66.3256 38.4229C66.8414 38.4229 67.2444 38.2778 67.5346 37.9877C67.8312 37.6975 67.9795 37.2526 67.9795 36.653V32.3878H68.8596V36.6433C68.8596 37.2043 68.7467 37.6782 68.5211 38.065C68.2954 38.4454 67.9891 38.7291 67.6023 38.9161C67.2219 39.1031 66.7931 39.1966 66.316 39.1966C65.8388 39.1966 65.4068 39.1031 65.02 38.9161C64.6396 38.7291 64.3365 38.4454 64.1108 38.065C63.8916 37.6782 63.782 37.2043 63.782 36.6433V32.3878H64.6621ZM72.9101 33.7322C73.5549 33.7322 74.0771 33.9288 74.4769 34.3221C74.8766 34.709 75.0765 35.2699 75.0765 36.005V39.1289H74.2061V36.1307C74.2061 35.602 74.0739 35.199 73.8095 34.9218C73.5452 34.6381 73.1841 34.4962 72.7263 34.4962C72.2621 34.4962 71.8913 34.6413 71.6141 34.9314C71.3433 35.2216 71.2079 35.6439 71.2079 36.1984V39.1289H70.3278V33.8289H71.2079V34.5833C71.382 34.3125 71.6173 34.1029 71.9139 33.9546C72.217 33.8063 72.549 33.7322 72.9101 33.7322ZM77.3943 31.9719V39.1289H76.5142V31.9719H77.3943ZM81.2058 39.216C80.7093 39.216 80.258 39.1031 79.8518 38.8774C79.452 38.6518 79.1361 38.3326 78.904 37.92C78.6783 37.5009 78.5655 37.0173 78.5655 36.4692C78.5655 35.9276 78.6815 35.4505 78.9136 35.0378C79.1522 34.6187 79.4746 34.2996 79.8808 34.0803C80.287 33.8547 80.7416 33.7418 81.2445 33.7418C81.7474 33.7418 82.202 33.8547 82.6082 34.0803C83.0144 34.2996 83.3335 34.6155 83.5657 35.0282C83.8042 35.4408 83.9235 35.9212 83.9235 36.4692C83.9235 37.0173 83.801 37.5009 83.556 37.92C83.3174 38.3326 82.9918 38.6518 82.5792 38.8774C82.1665 39.1031 81.7087 39.216 81.2058 39.216ZM81.2058 38.4422C81.5217 38.4422 81.8183 38.3681 82.0956 38.2198C82.3728 38.0715 82.5953 37.849 82.7629 37.5524C82.937 37.2558 83.0241 36.8948 83.0241 36.4692C83.0241 36.0437 82.9402 35.6826 82.7726 35.386C82.6049 35.0894 82.3857 34.8702 82.1149 34.7283C81.8441 34.58 81.5507 34.5059 81.2348 34.5059C80.9124 34.5059 80.6158 34.58 80.345 34.7283C80.0807 34.8702 79.8679 35.0894 79.7067 35.386C79.5455 35.6826 79.4649 36.0437 79.4649 36.4692C79.4649 36.9012 79.5423 37.2655 79.697 37.5621C79.8582 37.8587 80.071 38.0812 80.3354 38.2295C80.5997 38.3713 80.8899 38.4422 81.2058 38.4422ZM84.7519 36.4692C84.7519 35.9212 84.8615 35.444 85.0807 35.0378C85.2999 34.6252 85.603 34.306 85.9898 34.0803C86.3831 33.8547 86.8312 33.7418 87.3342 33.7418C87.9854 33.7418 88.5205 33.8998 88.9397 34.2157C89.3652 34.5317 89.6457 34.9701 89.7811 35.5311H88.8333C88.743 35.2087 88.5657 34.954 88.3013 34.767C88.0434 34.58 87.721 34.4866 87.3342 34.4866C86.8312 34.4866 86.425 34.6606 86.1156 35.0088C85.8061 35.3505 85.6513 35.8373 85.6513 36.4692C85.6513 37.1075 85.8061 37.6008 86.1156 37.949C86.425 38.2972 86.8312 38.4712 87.3342 38.4712C87.721 38.4712 88.0434 38.381 88.3013 38.2004C88.5592 38.0199 88.7365 37.762 88.8333 37.4267H89.7811C89.6392 37.9683 89.3555 38.4035 88.93 38.7324C88.5044 39.0548 87.9725 39.216 87.3342 39.216C86.8312 39.216 86.3831 39.1031 85.9898 38.8774C85.603 38.6518 85.2999 38.3326 85.0807 37.92C84.8615 37.5073 84.7519 37.0237 84.7519 36.4692ZM93.9149 39.1289L91.8355 36.7884V39.1289H90.9554V31.9719H91.8355V36.1791L93.8762 33.8289H95.1045L92.6093 36.4692L95.1142 39.1289H93.9149ZM103.076 33.8289L99.8847 41.6242H98.9756L100.02 39.0709L97.8827 33.8289H98.8595L100.523 38.1231L102.167 33.8289H103.076ZM106.273 39.216C105.776 39.216 105.325 39.1031 104.919 38.8774C104.519 38.6518 104.203 38.3326 103.971 37.92C103.745 37.5009 103.632 37.0173 103.632 36.4692C103.632 35.9276 103.748 35.4505 103.98 35.0378C104.219 34.6187 104.541 34.2996 104.948 34.0803C105.354 33.8547 105.808 33.7418 106.311 33.7418C106.814 33.7418 107.269 33.8547 107.675 34.0803C108.081 34.2996 108.4 34.6155 108.632 35.0282C108.871 35.4408 108.99 35.9212 108.99 36.4692C108.99 37.0173 108.868 37.5009 108.623 37.92C108.384 38.3326 108.059 38.6518 107.646 38.8774C107.233 39.1031 106.775 39.216 106.273 39.216ZM106.273 38.4422C106.588 38.4422 106.885 38.3681 107.162 38.2198C107.44 38.0715 107.662 37.849 107.83 37.5524C108.004 37.2558 108.091 36.8948 108.091 36.4692C108.091 36.0437 108.007 35.6826 107.839 35.386C107.672 35.0894 107.452 34.8702 107.182 34.7283C106.911 34.58 106.617 34.5059 106.302 34.5059C105.979 34.5059 105.683 34.58 105.412 34.7283C105.147 34.8702 104.935 35.0894 104.773 35.386C104.612 35.6826 104.532 36.0437 104.532 36.4692C104.532 36.9012 104.609 37.2655 104.764 37.5621C104.925 37.8587 105.138 38.0812 105.402 38.2295C105.666 38.3713 105.957 38.4422 106.273 38.4422ZM114.848 33.8289V39.1289H113.968V38.3455C113.8 38.6163 113.565 38.8291 113.262 38.9838C112.965 39.1321 112.636 39.2063 112.275 39.2063C111.863 39.2063 111.492 39.1225 111.163 38.9548C110.834 38.7807 110.573 38.5228 110.38 38.1811C110.193 37.8394 110.099 37.4235 110.099 36.9335V33.8289H110.97V36.8174C110.97 37.3397 111.102 37.7426 111.366 38.0263C111.63 38.3036 111.991 38.4422 112.449 38.4422C112.92 38.4422 113.291 38.2972 113.562 38.007C113.832 37.7169 113.968 37.2945 113.968 36.74V33.8289H114.848ZM117.214 34.6897C117.369 34.3866 117.588 34.1513 117.872 33.9836C118.162 33.816 118.513 33.7322 118.926 33.7322V34.6413H118.694C117.707 34.6413 117.214 35.1765 117.214 36.2468V39.1289H116.334V33.8289H117.214V34.6897ZM123.594 34.5543V37.6782C123.594 37.9361 123.649 38.1198 123.758 38.2295C123.868 38.3326 124.058 38.3842 124.329 38.3842H124.977V39.1289H124.184C123.694 39.1289 123.326 39.0161 123.081 38.7904C122.836 38.5647 122.714 38.194 122.714 37.6782V34.5543H122.027V33.8289H122.714V32.4942H123.594V33.8289H124.977V34.5543H123.594ZM126.923 34.6897C127.078 34.3866 127.297 34.1513 127.581 33.9836C127.871 33.816 128.223 33.7322 128.635 33.7322V34.6413H128.403C127.417 34.6413 126.923 35.1765 126.923 36.2468V39.1289H126.043V33.8289H126.923V34.6897ZM129.322 36.4596C129.322 35.9179 129.432 35.444 129.651 35.0378C129.87 34.6252 130.17 34.306 130.551 34.0803C130.937 33.8547 131.366 33.7418 131.837 33.7418C132.301 33.7418 132.704 33.8418 133.046 34.0417C133.388 34.2415 133.642 34.493 133.81 34.796V33.8289H134.7V39.1289H133.81V38.1424C133.636 38.4519 133.375 38.7098 133.027 38.9161C132.685 39.116 132.285 39.216 131.827 39.216C131.357 39.216 130.931 39.0999 130.551 38.8678C130.17 38.6357 129.87 38.31 129.651 37.8909C129.432 37.4718 129.322 36.9947 129.322 36.4596ZM133.81 36.4692C133.81 36.0695 133.729 35.7213 133.568 35.4247C133.407 35.1281 133.188 34.9024 132.91 34.7477C132.64 34.5865 132.34 34.5059 132.011 34.5059C131.682 34.5059 131.382 34.5833 131.112 34.738C130.841 34.8928 130.625 35.1184 130.464 35.415C130.302 35.7116 130.222 36.0598 130.222 36.4596C130.222 36.8658 130.302 37.2204 130.464 37.5234C130.625 37.82 130.841 38.0489 131.112 38.2101C131.382 38.3649 131.682 38.4422 132.011 38.4422C132.34 38.4422 132.64 38.3649 132.91 38.2101C133.188 38.0489 133.407 37.82 133.568 37.5234C133.729 37.2204 133.81 36.869 133.81 36.4692ZM135.858 36.4596C135.858 35.9179 135.968 35.444 136.187 35.0378C136.406 34.6252 136.706 34.306 137.086 34.0803C137.473 33.8547 137.905 33.7418 138.382 33.7418C138.795 33.7418 139.179 33.8386 139.533 34.032C139.888 34.219 140.159 34.4672 140.346 34.7767V31.9719H141.236V39.1289H140.346V38.1327C140.172 38.4487 139.914 38.7098 139.572 38.9161C139.23 39.116 138.831 39.216 138.373 39.216C137.902 39.216 137.473 39.0999 137.086 38.8678C136.706 38.6357 136.406 38.31 136.187 37.8909C135.968 37.4718 135.858 36.9947 135.858 36.4596ZM140.346 36.4692C140.346 36.0695 140.265 35.7213 140.104 35.4247C139.943 35.1281 139.724 34.9024 139.446 34.7477C139.176 34.5865 138.876 34.5059 138.547 34.5059C138.218 34.5059 137.918 34.5833 137.647 34.738C137.377 34.8928 137.161 35.1184 136.999 35.415C136.838 35.7116 136.758 36.0598 136.758 36.4596C136.758 36.8658 136.838 37.2204 136.999 37.5234C137.161 37.82 137.377 38.0489 137.647 38.2101C137.918 38.3649 138.218 38.4422 138.547 38.4422C138.876 38.4422 139.176 38.3649 139.446 38.2101C139.724 38.0489 139.943 37.82 140.104 37.5234C140.265 37.2204 140.346 36.869 140.346 36.4692ZM143.177 32.9681C143.01 32.9681 142.868 32.9101 142.752 32.794C142.636 32.678 142.578 32.5361 142.578 32.3685C142.578 32.2008 142.636 32.059 142.752 31.9429C142.868 31.8269 143.01 31.7688 143.177 31.7688C143.339 31.7688 143.474 31.8269 143.584 31.9429C143.7 32.059 143.758 32.2008 143.758 32.3685C143.758 32.5361 143.7 32.678 143.584 32.794C143.474 32.9101 143.339 32.9681 143.177 32.9681ZM143.603 33.8289V39.1289H142.723V33.8289H143.603ZM147.685 33.7322C148.33 33.7322 148.852 33.9288 149.252 34.3221C149.652 34.709 149.852 35.2699 149.852 36.005V39.1289H148.981V36.1307C148.981 35.602 148.849 35.199 148.585 34.9218C148.32 34.6381 147.959 34.4962 147.502 34.4962C147.037 34.4962 146.667 34.6413 146.389 34.9314C146.119 35.2216 145.983 35.6439 145.983 36.1984V39.1289H145.103V33.8289H145.983V34.5833C146.157 34.3125 146.393 34.1029 146.689 33.9546C146.992 33.8063 147.324 33.7322 147.685 33.7322ZM153.475 33.7418C153.933 33.7418 154.333 33.8418 154.674 34.0417C155.023 34.2415 155.281 34.493 155.448 34.796V33.8289H156.338V39.245C156.338 39.7285 156.235 40.1573 156.028 40.5313C155.822 40.9117 155.526 41.2083 155.139 41.4211C154.758 41.6338 154.313 41.7402 153.804 41.7402C153.108 41.7402 152.527 41.5758 152.063 41.247C151.599 40.9181 151.325 40.47 151.241 39.9026H152.111C152.208 40.225 152.408 40.4829 152.711 40.6764C153.014 40.8762 153.378 40.9762 153.804 40.9762C154.288 40.9762 154.681 40.8247 154.984 40.5216C155.293 40.2186 155.448 39.793 155.448 39.245V38.1327C155.274 38.4422 155.016 38.7001 154.674 38.9065C154.333 39.1128 153.933 39.216 153.475 39.216C153.004 39.216 152.576 39.0999 152.189 38.8678C151.808 38.6357 151.509 38.31 151.289 37.8909C151.07 37.4718 150.961 36.9947 150.961 36.4596C150.961 35.9179 151.07 35.444 151.289 35.0378C151.509 34.6252 151.808 34.306 152.189 34.0803C152.576 33.8547 153.004 33.7418 153.475 33.7418ZM155.448 36.4692C155.448 36.0695 155.368 35.7213 155.206 35.4247C155.045 35.1281 154.826 34.9024 154.549 34.7477C154.278 34.5865 153.978 34.5059 153.649 34.5059C153.32 34.5059 153.021 34.5833 152.75 34.738C152.479 34.8928 152.263 35.1184 152.102 35.415C151.941 35.7116 151.86 36.0598 151.86 36.4596C151.86 36.8658 151.941 37.2204 152.102 37.5234C152.263 37.82 152.479 38.0489 152.75 38.2101C153.021 38.3649 153.32 38.4422 153.649 38.4422C153.978 38.4422 154.278 38.3649 154.549 38.2101C154.826 38.0489 155.045 37.82 155.206 37.5234C155.368 37.2204 155.448 36.869 155.448 36.4692ZM161.284 34.8057C161.458 34.5027 161.716 34.2512 162.058 34.0513C162.406 33.845 162.809 33.7418 163.267 33.7418C163.737 33.7418 164.163 33.8547 164.543 34.0803C164.93 34.306 165.233 34.6252 165.452 35.0378C165.671 35.444 165.781 35.9179 165.781 36.4596C165.781 36.9947 165.671 37.4718 165.452 37.8909C165.233 38.31 164.93 38.6357 164.543 38.8678C164.163 39.0999 163.737 39.216 163.267 39.216C162.815 39.216 162.415 39.116 162.067 38.9161C161.725 38.7098 161.464 38.4551 161.284 38.1521V41.6435H160.404V33.8289H161.284V34.8057ZM164.882 36.4596C164.882 36.0598 164.801 35.7116 164.64 35.415C164.479 35.1184 164.259 34.8928 163.982 34.738C163.711 34.5833 163.412 34.5059 163.083 34.5059C162.76 34.5059 162.461 34.5865 162.183 34.7477C161.912 34.9024 161.693 35.1313 161.526 35.4344C161.364 35.731 161.284 36.0759 161.284 36.4692C161.284 36.869 161.364 37.2204 161.526 37.5234C161.693 37.82 161.912 38.0489 162.183 38.2101C162.461 38.3649 162.76 38.4422 163.083 38.4422C163.412 38.4422 163.711 38.3649 163.982 38.2101C164.259 38.0489 164.479 37.82 164.64 37.5234C164.801 37.2204 164.882 36.8658 164.882 36.4596ZM169.251 39.216C168.755 39.216 168.303 39.1031 167.897 38.8774C167.497 38.6518 167.181 38.3326 166.949 37.92C166.724 37.5009 166.611 37.0173 166.611 36.4692C166.611 35.9276 166.727 35.4505 166.959 35.0378C167.197 34.6187 167.52 34.2996 167.926 34.0803C168.332 33.8547 168.787 33.7418 169.29 33.7418C169.793 33.7418 170.247 33.8547 170.653 34.0803C171.06 34.2996 171.379 34.6155 171.611 35.0282C171.85 35.4408 171.969 35.9212 171.969 36.4692C171.969 37.0173 171.846 37.5009 171.601 37.92C171.363 38.3326 171.037 38.6518 170.624 38.8774C170.212 39.1031 169.754 39.216 169.251 39.216ZM169.251 38.4422C169.567 38.4422 169.864 38.3681 170.141 38.2198C170.418 38.0715 170.641 37.849 170.808 37.5524C170.982 37.2558 171.069 36.8948 171.069 36.4692C171.069 36.0437 170.986 35.6826 170.818 35.386C170.65 35.0894 170.431 34.8702 170.16 34.7283C169.889 34.58 169.596 34.5059 169.28 34.5059C168.958 34.5059 168.661 34.58 168.39 34.7283C168.126 34.8702 167.913 35.0894 167.752 35.386C167.591 35.6826 167.51 36.0437 167.51 36.4692C167.51 36.9012 167.588 37.2655 167.742 37.5621C167.904 37.8587 168.116 38.0812 168.381 38.2295C168.645 38.3713 168.935 38.4422 169.251 38.4422ZM174.2 34.5543V37.6782C174.2 37.9361 174.254 38.1198 174.364 38.2295C174.474 38.3326 174.664 38.3842 174.935 38.3842H175.583V39.1289H174.789C174.299 39.1289 173.932 39.0161 173.687 38.7904C173.442 38.5647 173.319 38.194 173.319 37.6782V34.5543H172.633V33.8289H173.319V32.4942H174.2V33.8289H175.583V34.5543H174.2ZM181.485 36.2758C181.485 36.4434 181.475 36.6207 181.456 36.8077H177.22C177.252 37.33 177.429 37.7394 177.751 38.036C178.08 38.3262 178.477 38.4712 178.941 38.4712C179.322 38.4712 179.637 38.3842 179.889 38.2101C180.147 38.0296 180.327 37.791 180.431 37.4944H181.378C181.236 38.0038 180.953 38.4197 180.527 38.742C180.102 39.058 179.573 39.216 178.941 39.216C178.438 39.216 177.987 39.1031 177.587 38.8774C177.194 38.6518 176.884 38.3326 176.659 37.92C176.433 37.5009 176.32 37.0173 176.32 36.4692C176.32 35.9212 176.43 35.4408 176.649 35.0282C176.868 34.6155 177.174 34.2996 177.568 34.0803C177.967 33.8547 178.425 33.7418 178.941 33.7418C179.444 33.7418 179.889 33.8515 180.276 34.0707C180.663 34.2899 180.959 34.5929 181.166 34.9798C181.378 35.3602 181.485 35.7922 181.485 36.2758ZM180.576 36.092C180.576 35.7568 180.501 35.4698 180.353 35.2313C180.205 34.9863 180.002 34.8025 179.744 34.68C179.492 34.551 179.212 34.4866 178.902 34.4866C178.458 34.4866 178.077 34.6284 177.761 34.9121C177.452 35.1958 177.274 35.5891 177.229 36.092H180.576ZM185.229 33.7322C185.874 33.7322 186.396 33.9288 186.796 34.3221C187.195 34.709 187.395 35.2699 187.395 36.005V39.1289H186.525V36.1307C186.525 35.602 186.393 35.199 186.128 34.9218C185.864 34.6381 185.503 34.4962 185.045 34.4962C184.581 34.4962 184.21 34.6413 183.933 34.9314C183.662 35.2216 183.527 35.6439 183.527 36.1984V39.1289H182.646V33.8289H183.527V34.5833C183.701 34.3125 183.936 34.1029 184.233 33.9546C184.536 33.8063 184.868 33.7322 185.229 33.7322ZM189.906 34.5543V37.6782C189.906 37.9361 189.961 38.1198 190.071 38.2295C190.18 38.3326 190.371 38.3842 190.641 38.3842H191.289V39.1289H190.496C190.006 39.1289 189.639 39.0161 189.394 38.7904C189.149 38.5647 189.026 38.194 189.026 37.6782V34.5543H188.34V33.8289H189.026V32.4942H189.906V33.8289H191.289V34.5543H189.906ZM192.81 32.9681C192.643 32.9681 192.501 32.9101 192.385 32.794C192.269 32.678 192.211 32.5361 192.211 32.3685C192.211 32.2008 192.269 32.059 192.385 31.9429C192.501 31.8269 192.643 31.7688 192.81 31.7688C192.972 31.7688 193.107 31.8269 193.217 31.9429C193.333 32.059 193.391 32.2008 193.391 32.3685C193.391 32.5361 193.333 32.678 193.217 32.794C193.107 32.9101 192.972 32.9681 192.81 32.9681ZM193.236 33.8289V39.1289H192.356V33.8289H193.236ZM194.407 36.4596C194.407 35.9179 194.517 35.444 194.736 35.0378C194.955 34.6252 195.255 34.306 195.635 34.0803C196.022 33.8547 196.451 33.7418 196.922 33.7418C197.386 33.7418 197.789 33.8418 198.131 34.0417C198.472 34.2415 198.727 34.493 198.895 34.796V33.8289H199.784V39.1289H198.895V38.1424C198.721 38.4519 198.459 38.7098 198.111 38.9161C197.77 39.116 197.37 39.216 196.912 39.216C196.441 39.216 196.016 39.0999 195.635 38.8678C195.255 38.6357 194.955 38.31 194.736 37.8909C194.517 37.4718 194.407 36.9947 194.407 36.4596ZM198.895 36.4692C198.895 36.0695 198.814 35.7213 198.653 35.4247C198.492 35.1281 198.272 34.9024 197.995 34.7477C197.724 34.5865 197.425 34.5059 197.096 34.5059C196.767 34.5059 196.467 34.5833 196.196 34.738C195.925 34.8928 195.709 35.1184 195.548 35.415C195.387 35.7116 195.307 36.0598 195.307 36.4596C195.307 36.8658 195.387 37.2204 195.548 37.5234C195.709 37.82 195.925 38.0489 196.196 38.2101C196.467 38.3649 196.767 38.4422 197.096 38.4422C197.425 38.4422 197.724 38.3649 197.995 38.2101C198.272 38.0489 198.492 37.82 198.653 37.5234C198.814 37.2204 198.895 36.869 198.895 36.4692ZM202.152 31.9719V39.1289H201.272V31.9719H202.152Z" fill="#010610" fill-opacity="0.6"/>
<defs>
<filter id="filter0_d_438_1656" x="0.601942" y="0.300971" width="50.7961" height="50.7961" filterUnits="userSpaceOnUse" color-interpolation-filters="sRGB">
<feFlood flood-opacity="0" result="BackgroundImageFix"/>
<feColorMatrix in="SourceAlpha" type="matrix" values="0 0 0 0 0 0 0 0 0 0 0 0 0 0 0 0 0 0 127 0" result="hardAlpha"/>
<feOffset dy="0.699029"/>
<feGaussianBlur stdDeviation="0.699029"/>
<feColorMatrix type="matrix" values="0 0 0 0 0 0 0 0 0 0 0 0 0 0 0 0 0 0 0.48 0"/>
<feBlend mode="normal" in2="BackgroundImageFix" result="effect1_dropShadow_438_1656"/>
<feBlend mode="normal" in="SourceGraphic" in2="effect1_dropShadow_438_1656" result="shape"/>
</filter>
<filter id="filter1_i_438_1656" x="2" y="1" width="48" height="48.233" filterUnits="userSpaceOnUse" color-interpolation-filters="sRGB">
<feFlood flood-opacity="0" result="BackgroundImageFix"/>
<feBlend mode="normal" in="SourceGraphic" in2="BackgroundImageFix" result="shape"/>
<feColorMatrix in="SourceAlpha" type="matrix" values="0 0 0 0 0 0 0 0 0 0 0 0 0 0 0 0 0 0 127 0" result="hardAlpha"/>
<feOffset dy="0.23301"/>
<feGaussianBlur stdDeviation="0.116505"/>
<feComposite in2="hardAlpha" operator="arithmetic" k2="-1" k3="1"/>
<feColorMatrix type="matrix" values="0 0 0 0 1 0 0 0 0 1 0 0 0 0 1 0 0 0 0.16 0"/>
<feBlend mode="normal" in2="shape" result="effect1_innerShadow_438_1656"/>
</filter>
<linearGradient id="paint0_linear_438_1656" x1="26" y1="1" x2="26" y2="49" gradientUnits="userSpaceOnUse">
<stop stop-color="#FF0000"/>
<stop offset="1" stop-color="#E60000"/>
</linearGradient>
<radialGradient id="paint1_radial_438_1656" cx="0" cy="0" r="1" gradientUnits="userSpaceOnUse" gradientTransform="translate(26 1) rotate(90) scale(50.736)">
<stop stop-color="#394648"/>
<stop offset="1" stop-opacity="0"/>
</radialGradient>
<linearGradient id="paint2_linear_438_1656" x1="29.2636" y1="16.2146" x2="29.2636" y2="53.8468" gradientUnits="userSpaceOnUse">
<stop stop-color="#1F43FF" stop-opacity="0"/>
<stop offset="1" stop-color="#0A0025"/>
</linearGradient>
<radialGradient id="paint3_radial_438_1656" cx="0" cy="0" r="1" gradientUnits="userSpaceOnUse" gradientTransform="translate(34.184 6.76553) rotate(111.877) scale(28.6873 38.3087)">
<stop stop-color="#40E8FF"/>
<stop offset="1" stop-color="#57A4FF" stop-opacity="0"/>
</radialGradient>
<radialGradient id="paint4_radial_438_1656" cx="0" cy="0" r="1" gradientUnits="userSpaceOnUse" gradientTransform="translate(23.5831 26.7757) rotate(110.147) scale(34.511 28.302)">
<stop stop-color="#040B23" stop-opacity="0"/>
<stop offset="1"/>
</radialGradient>
<clipPath id="clip0_438_1656">
<rect width="48" height="48" fill="white" transform="translate(2 1)"/>
</clipPath>
<clipPath id="clip1_438_1656">
<rect width="36.501" height="42.9969" fill="white" transform="translate(7.75 6.08008)"/>
</clipPath>
<clipPath id="clip2_438_1656">
<rect width="98.9882" height="15.4535" fill="white" transform="translate(63.0566 10.7402)"/>
</clipPath>
</defs>
</svg>
