<svg width="15" height="16" viewBox="0 0 15 16" fill="none" xmlns="http://www.w3.org/2000/svg">
<path d="M7.27035 7.6416L0.558594 14.6734C0.633958 14.9406 0.769398 15.1869 0.95456 15.3936C1.13972 15.6004 1.36971 15.7621 1.62693 15.8663C1.88415 15.9705 2.1618 16.0146 2.43865 15.9951C2.71551 15.9756 2.98423 15.893 3.22429 15.7537L10.7763 11.4526L7.27035 7.6416Z" fill="#EA4335"/>
<path d="M14.0571 6.44666L10.7912 4.57617L7.11523 7.80202L10.8062 11.443L14.0471 9.59249C14.3342 9.44216 14.5747 9.21611 14.7425 8.93884C14.9103 8.66157 14.999 8.34366 14.999 8.01957C14.999 7.69548 14.9103 7.37757 14.7425 7.10031C14.5747 6.82304 14.3342 6.59699 14.0471 6.44666H14.0571Z" fill="#FBBC04"/>
<path d="M0.558082 1.33008C0.517511 1.48006 0.497324 1.63483 0.498067 1.7902V14.2135C0.498472 14.3688 0.51864 14.5234 0.558082 14.6736L7.4999 7.82178L0.558082 1.33008Z" fill="#4285F4"/>
<path d="M7.32037 8.0021L10.7913 4.5762L3.2493 0.25507C2.96557 0.0888971 2.64286 0.000887156 2.31405 3.57701e-06C1.91694 -0.000783383 1.53046 0.128301 1.21353 0.36758C0.896598 0.606859 0.666599 0.943206 0.558594 1.32535L7.32037 8.0021Z" fill="#34A853"/>
</svg>
