<svg width="240" height="48" viewBox="0 0 240 48" fill="none" xmlns="http://www.w3.org/2000/svg">
<path d="M22.0979 5.8541C22.6966 4.01148 25.3034 4.01148 25.9021 5.8541L28.9393 15.2016C29.2071 16.0257 29.975 16.5836 30.8414 16.5836H40.67C42.6074 16.5836 43.413 19.0628 41.8456 20.2016L33.8941 25.9787C33.1931 26.488 32.8998 27.3907 33.1675 28.2148L36.2047 37.5623C36.8034 39.4049 34.6945 40.9372 33.127 39.7984L25.1756 34.0213C24.4746 33.512 23.5254 33.512 22.8244 34.0213L14.873 39.7984C13.3055 40.9372 11.1966 39.4049 11.7953 37.5623L14.8325 28.2148C15.1002 27.3907 14.8069 26.488 14.1059 25.9787L6.15444 20.2016C4.58701 19.0628 5.39257 16.5836 7.33001 16.5836H17.1586C18.025 16.5836 18.7929 16.0257 19.0607 15.2016L22.0979 5.8541Z" fill="#FCBB51"/>
<path d="M70.0979 5.8541C70.6966 4.01148 73.3034 4.01148 73.9021 5.8541L76.9393 15.2016C77.2071 16.0257 77.975 16.5836 78.8414 16.5836H88.67C90.6074 16.5836 91.413 19.0628 89.8456 20.2016L81.8941 25.9787C81.1931 26.488 80.8998 27.3907 81.1675 28.2148L84.2047 37.5623C84.8034 39.4049 82.6945 40.9372 81.127 39.7984L73.1756 34.0213C72.4746 33.512 71.5254 33.512 70.8244 34.0213L62.873 39.7984C61.3055 40.9372 59.1966 39.4049 59.7953 37.5623L62.8325 28.2148C63.1002 27.3907 62.8069 26.488 62.1059 25.9787L54.1544 20.2016C52.587 19.0628 53.3926 16.5836 55.33 16.5836H65.1586C66.025 16.5836 66.7929 16.0257 67.0607 15.2016L70.0979 5.8541Z" fill="#FCBB51"/>
<path d="M118.098 5.8541C118.697 4.01148 121.303 4.01148 121.902 5.8541L124.939 15.2016C125.207 16.0257 125.975 16.5836 126.841 16.5836H136.67C138.607 16.5836 139.413 19.0628 137.846 20.2016L129.894 25.9787C129.193 26.488 128.9 27.3907 129.168 28.2148L132.205 37.5623C132.803 39.4049 130.694 40.9372 129.127 39.7984L121.176 34.0213C120.475 33.512 119.525 33.512 118.824 34.0213L110.873 39.7984C109.306 40.9372 107.197 39.4049 107.795 37.5623L110.832 28.2148C111.1 27.3907 110.807 26.488 110.106 25.9787L102.154 20.2016C100.587 19.0628 101.393 16.5836 103.33 16.5836H113.159C114.025 16.5836 114.793 16.0257 115.061 15.2016L118.098 5.8541Z" fill="#FCBB51"/>
<path d="M166.098 5.8541C166.697 4.01148 169.303 4.01148 169.902 5.8541L172.939 15.2016C173.207 16.0257 173.975 16.5836 174.841 16.5836H184.67C186.607 16.5836 187.413 19.0628 185.846 20.2016L177.894 25.9787C177.193 26.488 176.9 27.3907 177.168 28.2148L180.205 37.5623C180.803 39.4049 178.694 40.9372 177.127 39.7984L169.176 34.0213C168.475 33.512 167.525 33.512 166.824 34.0213L158.873 39.7984C157.306 40.9372 155.197 39.4049 155.795 37.5623L158.832 28.2148C159.1 27.3907 158.807 26.488 158.106 25.9787L150.154 20.2016C148.587 19.0628 149.393 16.5836 151.33 16.5836H161.159C162.025 16.5836 162.793 16.0257 163.061 15.2016L166.098 5.8541Z" fill="#FCBB51"/>
<path d="M214.098 5.8541C214.697 4.01148 217.303 4.01148 217.902 5.8541L220.939 15.2016C221.207 16.0257 221.975 16.5836 222.841 16.5836H232.67C234.607 16.5836 235.413 19.0628 233.846 20.2016L225.894 25.9787C225.193 26.488 224.9 27.3907 225.168 28.2148L228.205 37.5623C228.803 39.4049 226.694 40.9372 225.127 39.7984L217.176 34.0213C216.475 33.512 215.525 33.512 214.824 34.0213L206.873 39.7984C205.306 40.9372 203.197 39.4049 203.795 37.5623L206.832 28.2148C207.1 27.3907 206.807 26.488 206.106 25.9787L198.154 20.2016C196.587 19.0628 197.393 16.5836 199.33 16.5836H209.159C210.025 16.5836 210.793 16.0257 211.061 15.2016L214.098 5.8541Z" fill="#D7D7D7"/>
<g clip-path="url(#clip0_438_1506)">
<path d="M214.098 5.8541C214.697 4.01148 217.303 4.01148 217.902 5.8541L220.939 15.2016C221.207 16.0257 221.975 16.5836 222.841 16.5836H232.67C234.607 16.5836 235.413 19.0628 233.846 20.2016L225.894 25.9787C225.193 26.488 224.9 27.3907 225.168 28.2148L228.205 37.5623C228.803 39.4049 226.694 40.9372 225.127 39.7984L217.176 34.0213C216.475 33.512 215.525 33.512 214.824 34.0213L206.873 39.7984C205.306 40.9372 203.197 39.4049 203.795 37.5623L206.832 28.2148C207.1 27.3907 206.807 26.488 206.106 25.9787L198.154 20.2016C196.587 19.0628 197.393 16.5836 199.33 16.5836H209.159C210.025 16.5836 210.793 16.0257 211.061 15.2016L214.098 5.8541Z" fill="#FCBB51"/>
</g>
<defs>
<clipPath id="clip0_438_1506">
<rect width="32" height="48" fill="white" transform="translate(192)"/>
</clipPath>
</defs>
</svg>
